<svg xmlns="http://www.w3.org/2000/svg" viewBox="0 0 200 200" width="200" height="200">
  <rect width="200" height="200" fill="white"/>
  <!-- Position markers -->
  <rect x="10" y="10" width="50" height="50" fill="black"/>
  <rect x="20" y="20" width="30" height="30" fill="white"/>
  <rect x="25" y="25" width="20" height="20" fill="black"/>

  <rect x="140" y="10" width="50" height="50" fill="black"/>
  <rect x="150" y="20" width="30" height="30" fill="white"/>
  <rect x="155" y="25" width="20" height="20" fill="black"/>

  <rect x="10" y="140" width="50" height="50" fill="black"/>
  <rect x="20" y="150" width="30" height="30" fill="white"/>
  <rect x="25" y="155" width="20" height="20" fill="black"/>

  <!-- Data pattern (decorative) -->
  <g fill="black">
    <rect x="70" y="10" width="10" height="10"/>
    <rect x="90" y="10" width="10" height="10"/>
    <rect x="110" y="10" width="10" height="10"/>
    <rect x="70" y="30" width="10" height="10"/>
    <rect x="100" y="30" width="10" height="10"/>
    <rect x="80" y="50" width="10" height="10"/>
    <rect x="120" y="50" width="10" height="10"/>

    <rect x="10" y="70" width="10" height="10"/>
    <rect x="30" y="70" width="10" height="10"/>
    <rect x="50" y="70" width="10" height="10"/>
    <rect x="70" y="70" width="10" height="10"/>
    <rect x="100" y="70" width="10" height="10"/>
    <rect x="130" y="70" width="10" height="10"/>
    <rect x="160" y="70" width="10" height="10"/>
    <rect x="180" y="70" width="10" height="10"/>

    <rect x="20" y="90" width="10" height="10"/>
    <rect x="60" y="90" width="10" height="10"/>
    <rect x="90" y="90" width="10" height="10"/>
    <rect x="110" y="90" width="10" height="10"/>
    <rect x="140" y="90" width="10" height="10"/>
    <rect x="170" y="90" width="10" height="10"/>

    <rect x="10" y="110" width="10" height="10"/>
    <rect x="40" y="110" width="10" height="10"/>
    <rect x="70" y="110" width="10" height="10"/>
    <rect x="120" y="110" width="10" height="10"/>
    <rect x="150" y="110" width="10" height="10"/>
    <rect x="180" y="110" width="10" height="10"/>

    <rect x="30" y="130" width="10" height="10"/>
    <rect x="80" y="130" width="10" height="10"/>
    <rect x="110" y="130" width="10" height="10"/>
    <rect x="140" y="130" width="10" height="10"/>
    <rect x="170" y="130" width="10" height="10"/>

    <rect x="70" y="150" width="10" height="10"/>
    <rect x="100" y="150" width="10" height="10"/>
    <rect x="130" y="150" width="10" height="10"/>
    <rect x="170" y="150" width="10" height="10"/>

    <rect x="80" y="170" width="10" height="10"/>
    <rect x="110" y="170" width="10" height="10"/>
    <rect x="130" y="170" width="10" height="10"/>
    <rect x="150" y="170" width="10" height="10"/>
    <rect x="180" y="170" width="10" height="10"/>

    <rect x="70" y="190" width="10" height="10"/>
    <rect x="90" y="190" width="10" height="10"/>
    <rect x="120" y="190" width="10" height="10"/>
    <rect x="160" y="190" width="10" height="10"/>
  </g>

  <!-- Center LINE label -->
  <circle cx="100" cy="100" r="22" fill="#06C755"/>
  <text x="100" y="106" font-family="Inter, sans-serif" font-size="12" font-weight="700" fill="white" text-anchor="middle">LINE</text>
</svg>